<svg width="41" height="40" xmlns="http://www.w3.org/2000/svg" xmlns:xlink="http://www.w3.org/1999/xlink" overflow="hidden"><defs><clipPath id="clip0"><rect x="2078" y="17" width="41" height="40"/></clipPath></defs><g clip-path="url(#clip0)" transform="translate(-2078 -17)"><path d="M33.8292 30.4958C31.4833 29.3208 27.9625 26.3292 27.6292 15.2333 27.5083 11.1542 24.9792 9.4 22.8625 8.65 22.9415 8.37933 22.9807 8.09863 22.9792 7.81667 22.9792 6.17133 21.6453 4.8375 20 4.8375 18.3547 4.8375 17.0208 6.17133 17.0208 7.81667 17.0192 8.09863 17.0585 8.37933 17.1375 8.65 15.0208 9.4 12.4917 11.15 12.3708 15.2333 12.0375 26.3167 8.51667 29.3167 6.17083 30.4917 5.21667 30.9667 5.69583 32.0833 6.25 32.0833L16.875 32.0833C17.0535 33.8092 18.5973 35.0636 20.3232 34.8852 21.8026 34.7322 22.972 33.5627 23.125 32.0833L33.75 32.0833C34.3042 32.0833 34.7833 30.9708 33.8292 30.4958ZM18.6875 7.8375C18.6875 7.11262 19.2751 6.525 20 6.525 20.7249 6.525 21.3125 7.11262 21.3125 7.8375 21.3107 7.96904 21.2897 8.09958 21.25 8.225 20.8377 8.14504 20.4198 8.09767 20 8.08333L20 8.08333C19.5805 8.10025 19.1627 8.14758 18.75 8.225 18.7096 8.09975 18.6885 7.96908 18.6875 7.8375Z" fill="#FFFFFF" transform="matrix(1.025 0 0 1 2078 17)"/></g></svg>