<svg width="58" height="57" xmlns="http://www.w3.org/2000/svg" xmlns:xlink="http://www.w3.org/1999/xlink" overflow="hidden"><defs><clipPath id="clip0"><rect x="15" y="649" width="58" height="57"/></clipPath></defs><g clip-path="url(#clip0)" transform="translate(-15 -649)"><path d="M53.7938 19.5938 36.8125 5.34375 36.8125 13.6562C10.8063 13.8938 10.45 40.375 10.45 40.375 10.45 40.375 15.9719 26.3031 36.8125 26.125L36.8125 33.8438 53.7938 19.5938Z" fill="#00FBAB" transform="matrix(1.01754 0 0 1 15 649)"/><path d="M43.5812 32.9531 43.5812 48.0938 6.76875 48.0938 6.76875 11.2812 33.25 11.2812 33.25 7.71875 3.20625 7.71875 3.20625 51.6562 47.1437 51.4781 47.1437 29.925Z" fill="#00FBAB" transform="matrix(1.01754 0 0 1 15 649)"/></g></svg>