<svg width="64" height="64" xmlns="http://www.w3.org/2000/svg" xmlns:xlink="http://www.w3.org/1999/xlink" overflow="hidden"><defs><clipPath id="clip0"><rect x="12" y="232" width="64" height="64"/></clipPath></defs><g clip-path="url(#clip0)" transform="translate(-12 -232)"><path d="M42 249.333 46 249.333 46 265.333 42 265.333Z" fill="#FFFFFF"/><path d="M48.6667 241.333 57.3333 241.333 57.3333 246.667 48.6667 246.667Z" fill="#FFFFFF"/><path d="M62.6667 249.333 48.6667 249.333 48.6667 265.333C48.6667 266.8 49.8667 268 51.3333 268L52 268 52 284C52 285.467 53.2 286.667 54.6667 286.667L64 286.667C65.4667 286.667 66.6667 285.467 66.6667 284L66.6667 271.333 62.6667 249.333Z" fill="#FFFFFF"/><path d="M21.3333 271.333 21.3333 284C21.3333 285.467 22.5333 286.667 24 286.667L33.3333 286.667C34.8 286.667 36 285.467 36 284L36 268 36.6667 268C38.1333 268 39.3333 266.8 39.3333 265.333L39.3333 249.333 25.3333 249.333 21.3333 271.333Z" fill="#FFFFFF"/><path d="M30.6667 241.333 39.3333 241.333 39.3333 246.667 30.6667 246.667Z" fill="#FFFFFF"/></g></svg>