<svg width="64" height="64" xmlns="http://www.w3.org/2000/svg" xmlns:xlink="http://www.w3.org/1999/xlink" overflow="hidden"><defs><clipPath id="clip0"><rect x="12" y="318" width="64" height="64"/></clipPath></defs><g clip-path="url(#clip0)" transform="translate(-12 -318)"><path d="M61.3333 368 53.3333 368 53.3333 362 61.3333 362 61.3333 368ZM48 368 40 368 40 362 48 362 48 368ZM34.6667 368 26.6667 368 26.6667 362 34.6667 362 34.6667 368ZM48.6667 354.667 48.6667 345.333 30.6667 354.667 28.6667 327.333 23.3333 327.333 21.3333 354.667 21.3333 372.667 66.6667 372.667 66.6667 354.667 66.6667 345.333 48.6667 354.667Z" fill="#FFFFFF"/></g></svg>