<svg width="55" height="53" xmlns="http://www.w3.org/2000/svg" xmlns:xlink="http://www.w3.org/1999/xlink" overflow="hidden"><defs><clipPath id="clip0"><rect x="16" y="485" width="55" height="53"/></clipPath></defs><g clip-path="url(#clip0)" transform="translate(-16 -485)"><path d="M3.86458 33.6771 45.1383 33.6771 40.2358 28.7746C39.6123 28.1053 39.6492 27.0573 40.3185 26.4338 40.9545 25.841 41.9406 25.841 42.5767 26.4338L50.3058 34.1629C50.9517 34.8096 50.9517 35.8571 50.3058 36.5037L42.5767 44.2329C41.93 44.8787 40.8825 44.8787 40.2358 44.2329 39.59 43.5863 39.59 42.5387 40.2358 41.8921L45.1383 36.9896 3.86458 36.9896C2.94986 36.9896 2.20833 36.2481 2.20833 35.3333 2.20833 34.4186 2.94986 33.6771 3.86458 33.6771Z" fill="#FFFFFF" transform="matrix(1.03774 0 0 1 16 485)"/><path d="M49.1354 16.0104 7.86167 16.0104 12.7642 11.1079C13.4334 10.4843 13.4704 9.43632 12.8468 8.76708 12.2232 8.09785 11.1752 8.06086 10.506 8.68444 10.4774 8.71099 10.4499 8.7386 10.4233 8.76708L2.69417 16.4962C2.04833 17.1429 2.04833 18.1904 2.69417 18.8371L10.4233 26.5662C11.07 27.2121 12.1175 27.2121 12.7642 26.5662 13.41 25.9196 13.41 24.8721 12.7642 24.2254L7.86167 19.3229 49.1354 19.3229C50.0502 19.3229 50.7917 18.5814 50.7917 17.6667 50.7917 16.7519 50.0502 16.0104 49.1354 16.0104Z" fill="#FFFFFF" transform="matrix(1.03774 0 0 1 16 485)"/></g></svg>