<svg width="60" height="58" xmlns="http://www.w3.org/2000/svg" xmlns:xlink="http://www.w3.org/1999/xlink" overflow="hidden"><defs><clipPath id="clip0"><rect x="13" y="731" width="60" height="58"/></clipPath></defs><g clip-path="url(#clip0)" transform="translate(-13 -731)"><path d="M22.9583 38.6667 35.0417 38.6667C36.0688 38.6667 36.8542 39.4521 36.8542 40.4792 36.8542 41.5062 36.0688 42.2917 35.0417 42.2917L22.9583 42.2917C21.9312 42.2917 21.1458 41.5062 21.1458 40.4792 21.1458 39.4521 21.9312 38.6667 22.9583 38.6667Z" fill="#FFFFFF" transform="matrix(1.03448 0 0 1 13 731)"/><path d="M22.9583 44.7083 35.0417 44.7083C36.0688 44.7083 36.8542 45.4938 36.8542 46.5208 36.8542 47.5479 36.0688 48.3333 35.0417 48.3333L22.9583 48.3333C21.9312 48.3333 21.1458 47.5479 21.1458 46.5208 21.1458 45.4938 21.9312 44.7083 22.9583 44.7083Z" fill="#FFFFFF" transform="matrix(1.03448 0 0 1 13 731)"/><path d="M25.0729 50.75C25.2542 52.8042 26.9458 54.375 29 54.375 31.0542 54.375 32.7458 52.8042 32.9271 50.75L25.0729 50.75Z" fill="#FFFFFF" transform="matrix(1.03448 0 0 1 13 731)"/><path d="M29 3.625C29 3.625 29 3.625 29 3.625 29 3.625 29 3.625 29 3.625 20.4208 3.68542 13.4729 10.5729 13.2917 19.1521L13.2917 19.6958C13.3521 21.5688 13.7146 23.3813 14.3792 25.1333 15.0437 26.7646 15.95 28.275 17.0979 29.6042 18.5479 31.175 20.1187 34.2563 20.7833 35.5854 20.9646 36.0083 21.3875 36.25 21.8708 36.25L36.1292 36.25C36.6125 36.25 37.0354 36.0083 37.2167 35.5854 37.8813 34.2563 39.4521 31.175 40.9021 29.6042 42.05 28.275 43.0167 26.7646 43.6208 25.1333 44.2854 23.3813 44.6479 21.5688 44.7083 19.6958L44.7083 19.1521C44.5271 10.5729 37.5792 3.68542 29 3.625ZM41.0833 19.6354C41.0229 21.0854 40.7208 22.5354 40.2375 23.8646 39.7542 25.0729 39.0896 26.2208 38.1833 27.1875 36.7938 28.8792 35.5854 30.6917 34.6792 32.625L29 32.625 23.3813 32.625C22.4146 30.6917 21.2062 28.8792 19.8771 27.1875 19.0312 26.2208 18.3062 25.0729 17.8229 23.8646 17.2792 22.5354 17.0375 21.0854 16.9771 19.6354L16.9771 19.1521C17.0979 12.5667 22.475 7.25 29.0604 7.18958L29.0604 7.18958 29.0604 7.18958C29.0604 7.18958 29.0604 7.18958 29.0604 7.18958 29.0604 7.18958 29.0604 7.18958 29.0604 7.18958L29.0604 7.18958 29.0604 7.18958C35.6458 7.25 41.0229 12.5063 41.1437 19.1521L41.1437 19.6354Z" fill="#FFFFFF" transform="matrix(1.03448 0 0 1 13 731)"/></g></svg>