<svg width="54" height="53" xmlns="http://www.w3.org/2000/svg" xmlns:xlink="http://www.w3.org/1999/xlink" overflow="hidden"><defs><clipPath id="clip0"><rect x="17" y="8" width="54" height="53"/></clipPath></defs><g clip-path="url(#clip0)" transform="translate(-17 -8)"><path d="M4.41667 9.38542 4.41667 43.6146 48.5833 43.6146 48.5833 9.38542ZM42.5104 12.6979C43.1202 12.6979 43.6146 13.1923 43.6146 13.8021 43.6146 14.4119 43.1202 14.9062 42.5104 14.9062 41.9006 14.9062 41.4062 14.4119 41.4062 13.8021 41.4062 13.1923 41.9006 12.6979 42.5104 12.6979ZM38.6458 12.6979C39.2557 12.6979 39.75 13.1923 39.75 13.8021 39.75 14.4119 39.2557 14.9062 38.6458 14.9062 38.036 14.9062 37.5417 14.4119 37.5417 13.8021 37.5417 13.1923 38.036 12.6979 38.6458 12.6979ZM34.7812 12.6979C35.3911 12.6979 35.8854 13.1923 35.8854 13.8021 35.8854 14.4119 35.3911 14.9062 34.7812 14.9062 34.1714 14.9062 33.6771 14.4119 33.6771 13.8021 33.6771 13.1923 34.1714 12.6979 34.7812 12.6979ZM45.2708 40.3021 7.72917 40.3021 7.72917 18.2188 45.2708 18.2188Z" fill="#FFFFFF" transform="matrix(1.01887 0 0 1 17 8)"/></g></svg>