<svg width="64" height="64" xmlns="http://www.w3.org/2000/svg" xmlns:xlink="http://www.w3.org/1999/xlink" overflow="hidden"><defs><clipPath id="clip0"><rect x="12" y="147" width="64" height="64"/></clipPath></defs><g clip-path="url(#clip0)" transform="translate(-12 -147)"><path d="M37.3333 192.333 50.6667 192.333 50.6667 201.667 37.3333 201.667Z" fill="#FFFFFF"/><path d="M37.3333 156.333 50.6667 156.333 50.6667 165.667 37.3333 165.667Z" fill="#FFFFFF"/><path d="M17.3333 192.333 30.6667 192.333 30.6667 201.667 17.3333 201.667Z" fill="#FFFFFF"/><path d="M57.3333 192.333 70.6667 192.333 70.6667 201.667 57.3333 201.667Z" fill="#FFFFFF"/><path d="M45.3333 177.667 45.3333 168.333 42.6667 168.333 42.6667 177.667 22.6667 177.667 22.6667 189.667 25.3333 189.667 25.3333 180.333 42.6667 180.333 42.6667 189.667 45.3333 189.667 45.3333 180.333 62.6667 180.333 62.6667 189.667 65.3333 189.667 65.3333 177.667Z" fill="#FFFFFF"/></g></svg>