<svg width="64" height="65" xmlns="http://www.w3.org/2000/svg" xmlns:xlink="http://www.w3.org/1999/xlink" overflow="hidden"><defs><clipPath id="clip0"><rect x="12" y="146" width="64" height="65"/></clipPath></defs><g clip-path="url(#clip0)" transform="translate(-12 -146)"><path d="M25.3333 45.3333 38.6667 45.3333 38.6667 54.6667 25.3333 54.6667Z" fill="#00FBAB" transform="matrix(1 0 0 1.01562 12 146)"/><path d="M25.3333 9.33333 38.6667 9.33333 38.6667 18.6667 25.3333 18.6667Z" fill="#00FBAB" transform="matrix(1 0 0 1.01562 12 146)"/><path d="M5.33333 45.3333 18.6667 45.3333 18.6667 54.6667 5.33333 54.6667Z" fill="#00FBAB" transform="matrix(1 0 0 1.01562 12 146)"/><path d="M45.3333 45.3333 58.6667 45.3333 58.6667 54.6667 45.3333 54.6667Z" fill="#00FBAB" transform="matrix(1 0 0 1.01562 12 146)"/><path d="M33.3333 30.6667 33.3333 21.3333 30.6667 21.3333 30.6667 30.6667 10.6667 30.6667 10.6667 42.6667 13.3333 42.6667 13.3333 33.3333 30.6667 33.3333 30.6667 42.6667 33.3333 42.6667 33.3333 33.3333 50.6667 33.3333 50.6667 42.6667 53.3333 42.6667 53.3333 30.6667Z" fill="#00FBAB" transform="matrix(1 0 0 1.01562 12 146)"/></g></svg>