<svg width="41" height="40" xmlns="http://www.w3.org/2000/svg" xmlns:xlink="http://www.w3.org/1999/xlink" overflow="hidden"><defs><clipPath id="clip0"><rect x="2248" y="17" width="41" height="40"/></clipPath></defs><g clip-path="url(#clip0)" transform="translate(-2248 -17)"><path d="M26.6667 12.5C26.6667 16.1819 23.6819 19.1667 20 19.1667 16.3181 19.1667 13.3333 16.1819 13.3333 12.5 13.3333 8.8181 16.3181 5.83333 20 5.83333 23.6819 5.83333 26.6667 8.8181 26.6667 12.5Z" fill="#FFFFFF" transform="matrix(1.025 0 0 1 2248 17)"/><path d="M33.3333 34.1667 33.3333 27.5C33.3333 26.5 32.8333 25.5 32 24.8333 30.1667 23.3333 27.8333 22.3333 25.5 21.6667 23.8333 21.1667 22 20.8333 20 20.8333 18.1667 20.8333 16.3333 21.1667 14.5 21.6667 12.1667 22.3333 9.83333 23.5 8 24.8333 7.16667 25.5 6.66667 26.5 6.66667 27.5L6.66667 34.1667 33.3333 34.1667Z" fill="#FFFFFF" transform="matrix(1.025 0 0 1 2248 17)"/></g></svg>