<svg width="40" height="40" xmlns="http://www.w3.org/2000/svg" xmlns:xlink="http://www.w3.org/1999/xlink" overflow="hidden"><defs><clipPath id="clip0"><rect x="2171" y="17" width="40" height="40"/></clipPath></defs><g clip-path="url(#clip0)" transform="translate(-2171 -17)"><path d="M2191 42C2188.25 42 2186 39.75 2186 37 2186 34.25 2188.25 32 2191 32 2193.75 32 2196 34.25 2196 37 2196 39.75 2193.75 42 2191 42ZM2202.25 33.875C2202 32.9583 2201.62 32.0833 2201.17 31.2917L2202.21 28.1667 2199.83 25.7917 2196.71 26.8333C2195.88 26.375 2195 26 2194.08 25.75L2192.67 22.8333 2189.33 22.8333 2187.88 25.75C2186.96 26 2186.08 26.375 2185.29 26.8333L2182.17 25.7917 2179.79 28.1667 2180.83 31.2917C2180.38 32.125 2180 33 2179.75 33.9167L2176.83 35.3333 2176.83 38.6667 2179.75 40.125C2180 41.0417 2180.38 41.9167 2180.83 42.7083L2179.79 45.8333 2182.17 48.2083 2185.29 47.1667C2186.12 47.625 2187 48 2187.92 48.25L2189.38 51.1667 2192.71 51.1667 2194.17 48.25C2195.08 48 2195.96 47.625 2196.75 47.1667L2199.88 48.2083 2202.25 45.8333 2201.21 42.7083C2201.67 41.875 2202.04 41 2202.29 40.0833L2205.21 38.625 2205.21 35.2917 2202.25 33.875Z" fill="#00FBAB"/></g></svg>