<svg width="40" height="40" xmlns="http://www.w3.org/2000/svg" xmlns:xlink="http://www.w3.org/1999/xlink" overflow="hidden"><defs><clipPath id="clip0"><rect x="2163" y="17" width="40" height="40"/></clipPath></defs><g clip-path="url(#clip0)" transform="translate(-2163 -17)"><path d="M2183 42C2180.25 42 2178 39.75 2178 37 2178 34.25 2180.25 32 2183 32 2185.75 32 2188 34.25 2188 37 2188 39.75 2185.75 42 2183 42ZM2194.25 33.875C2194 32.9583 2193.62 32.0833 2193.17 31.2917L2194.21 28.1667 2191.83 25.7917 2188.71 26.8333C2187.88 26.375 2187 26 2186.08 25.75L2184.67 22.8333 2181.33 22.8333 2179.88 25.75C2178.96 26 2178.08 26.375 2177.29 26.8333L2174.17 25.7917 2171.79 28.1667 2172.83 31.2917C2172.38 32.125 2172 33 2171.75 33.9167L2168.83 35.3333 2168.83 38.6667 2171.75 40.125C2172 41.0417 2172.38 41.9167 2172.83 42.7083L2171.79 45.8333 2174.17 48.2083 2177.29 47.1667C2178.12 47.625 2179 48 2179.92 48.25L2181.38 51.1667 2184.71 51.1667 2186.17 48.25C2187.08 48 2187.96 47.625 2188.75 47.1667L2191.88 48.2083 2194.25 45.8333 2193.21 42.7083C2193.67 41.875 2194.04 41 2194.29 40.0833L2197.21 38.625 2197.21 35.2917 2194.25 33.875Z" fill="#FFFFFF"/></g></svg>