<svg width="310" height="310" xmlns="http://www.w3.org/2000/svg" xmlns:xlink="http://www.w3.org/1999/xlink" overflow="hidden"><defs><clipPath id="clip0"><rect x="2180" y="1267" width="310" height="310"/></clipPath></defs><g clip-path="url(#clip0)" transform="translate(-2180 -1267)"><path d="M2393.12 1525.33 2276.88 1525.33 2276.88 1318.67 2393.12 1318.67 2393.12 1525.33ZM2322.08 1292.83 2347.92 1292.83C2351.47 1292.83 2354.38 1295.74 2354.38 1299.29 2354.38 1302.84 2351.47 1305.75 2347.92 1305.75L2322.08 1305.75C2318.53 1305.75 2315.62 1302.84 2315.62 1299.29 2315.62 1295.74 2318.53 1292.83 2322.08 1292.83ZM2406.04 1279.92 2263.96 1279.92C2260.41 1279.92 2257.5 1282.82 2257.5 1286.38L2257.5 1557.62C2257.5 1561.18 2260.41 1564.08 2263.96 1564.08L2406.04 1564.08C2409.59 1564.08 2412.5 1561.18 2412.5 1557.62L2412.5 1286.38C2412.5 1282.82 2409.59 1279.92 2406.04 1279.92Z" fill="#6CF5A6"/></g></svg>