<svg width="313" height="333" xmlns="http://www.w3.org/2000/svg" xmlns:xlink="http://www.w3.org/1999/xlink" overflow="hidden"><defs><clipPath id="clip0"><rect x="1320" y="601" width="313" height="333"/></clipPath></defs><g clip-path="url(#clip0)" transform="translate(-1320 -601)"><path d="M215.188 260.833 97.8125 260.833 97.8125 52.1667 215.188 52.1667 215.188 260.833ZM143.458 26.0833 169.542 26.0833C173.128 26.0833 176.062 29.0177 176.062 32.6042 176.062 36.1906 173.128 39.125 169.542 39.125L143.458 39.125C139.872 39.125 136.938 36.1906 136.938 32.6042 136.938 29.0177 139.872 26.0833 143.458 26.0833ZM228.229 13.0417 84.7708 13.0417C81.1844 13.0417 78.25 15.976 78.25 19.5625L78.25 293.438C78.25 297.024 81.1844 299.958 84.7708 299.958L228.229 299.958C231.816 299.958 234.75 297.024 234.75 293.438L234.75 19.5625C234.75 15.976 231.816 13.0417 228.229 13.0417Z" fill="#00FBAB" transform="matrix(1 0 0 1.0639 1320 601)"/></g></svg>