<svg width="39" height="40" xmlns="http://www.w3.org/2000/svg" xmlns:xlink="http://www.w3.org/1999/xlink" overflow="hidden"><defs><clipPath id="clip0"><rect x="1266" y="476" width="39" height="40"/></clipPath></defs><g clip-path="url(#clip0)" transform="translate(-1266 -476)"><path d="M26.4062 11.7812 23.9688 11.7812 23.9688 9.34375 26.4062 9.34375 26.4062 11.7812ZM26.4062 18.2812 23.9688 18.2812 23.9688 15.8438 26.4062 15.8438 26.4062 18.2812ZM26.4062 24.7812 23.9688 24.7812 23.9688 22.3438 26.4062 22.3438 26.4062 24.7812ZM26.4062 31.2812 23.9688 31.2812 23.9688 28.8438 26.4062 28.8438 26.4062 31.2812ZM20.7188 11.7812 18.2812 11.7812 18.2812 9.34375 20.7188 9.34375 20.7188 11.7812ZM20.7188 18.2812 18.2812 18.2812 18.2812 15.8438 20.7188 15.8438 20.7188 18.2812ZM20.7188 24.7812 18.2812 24.7812 18.2812 22.3438 20.7188 22.3438 20.7188 24.7812ZM20.7188 33.7188 18.2812 33.7188 18.2812 28.8438 20.7188 28.8438 20.7188 33.7188ZM15.0312 11.7812 12.5938 11.7812 12.5938 9.34375 15.0312 9.34375 15.0312 11.7812ZM15.0312 18.2812 12.5938 18.2812 12.5938 15.8438 15.0312 15.8438 15.0312 18.2812ZM15.0312 24.7812 12.5938 24.7812 12.5938 22.3438 15.0312 22.3438 15.0312 24.7812ZM15.0312 31.2812 12.5938 31.2812 12.5938 28.8438 15.0312 28.8438 15.0312 31.2812ZM29.25 33.7188 29.25 6.5 28.0312 6.5 28.0312 4.0625 26.8125 4.0625 26.8125 2.4375 12.1875 2.4375 12.1875 4.0625 10.9688 4.0625 10.9688 6.5 9.75 6.5 9.75 33.7188 8.125 33.7188 8.125 36.5625 30.875 36.5625 30.875 33.7188 29.25 33.7188Z" fill="#00FBAB" transform="matrix(1 0 0 1.02564 1266 476)"/></g></svg>