<svg width="45" height="44" xmlns="http://www.w3.org/2000/svg" xmlns:xlink="http://www.w3.org/1999/xlink" overflow="hidden"><defs><clipPath id="clip0"><rect x="918" y="450" width="45" height="44"/></clipPath></defs><g clip-path="url(#clip0)" transform="translate(-918 -450)"><path d="M22.9167 31.7167 22.9167 34.1458 21.0833 34.1458 21.0833 31.7167C20.0292 31.35 19.25 30.3417 19.25 29.1042 19.25 27.5917 20.4875 26.3542 22 26.3542 23.5125 26.3542 24.75 27.5917 24.75 29.1042 24.75 30.2958 23.9708 31.3042 22.9167 31.7167ZM15.125 14.8958C15.125 11.0917 18.1958 8.02083 22 8.02083 25.8042 8.02083 28.875 11.0917 28.875 14.8958L28.875 19.9833 22 19.4792 15.125 19.9833 15.125 14.8958ZM31.625 20.1667 31.625 14.8958C31.625 9.57917 27.3167 5.27083 22 5.27083 16.6833 5.27083 12.375 9.57917 12.375 14.8958L12.375 20.1667 9.16667 20.3958 9.16667 37.8125 22 38.7292 34.8333 37.8125 34.8333 20.3958 31.625 20.1667Z" fill="#00FBAB" transform="matrix(1.02273 0 0 1 918 450)"/></g></svg>