<svg width="45" height="44" xmlns="http://www.w3.org/2000/svg" xmlns:xlink="http://www.w3.org/1999/xlink" overflow="hidden"><defs><clipPath id="clip0"><rect x="918" y="306" width="45" height="44"/></clipPath></defs><g clip-path="url(#clip0)" transform="translate(-918 -306)"><path d="M3.66667 9.16667 3.66667 34.8333 40.3333 34.8333 40.3333 9.16667 3.66667 9.16667ZM22.6417 25.1625C22.275 25.5292 21.725 25.5292 21.3583 25.1625L7.79167 11.9167 36.2542 11.9167 22.6417 25.1625ZM15.3542 21.8625 6.41667 30.8458 6.41667 13.1083 15.3542 21.8625ZM16.6833 23.1458 20.1208 26.4917C20.6708 26.9958 21.3583 27.2708 22.0458 27.2708 22.7333 27.2708 23.4208 26.9958 23.9708 26.4917L27.4083 23.1458 36.3 32.0833 7.74583 32.0833 16.6833 23.1458ZM28.6458 21.8625 37.5833 13.1542 37.5833 30.8 28.6458 21.8625Z" fill="#00FBAB" transform="matrix(1.02273 0 0 1 918 306)"/></g></svg>